<?xml version="1.0" standalone="no"?>
<svg version="1.0" xmlns="http://www.w3.org/2000/svg"
 viewBox="341 396 2122 746"
 preserveAspectRatio="xMidYMid meet">
<g transform="translate(0.000000,1536.000000) scale(0.100000,-0.100000)"
fill="#A4553F" stroke="none">
<path d="M6595 11196 c-4 -16 0 -7014 4 -7048 1 -5 59 -8 131 -8 126 0 130 1
135 22 3 13 4 1604 3 3536 l-3 3514 -133 2 c-127 3 -133 2 -137 -18z M5105
9998 c-3 -7 -4 -1055 -2 -2328 l2 -2315 134 0 135 0 -2 1595 c0 877 -1 1925
-2 2328 l0 732 -130 0 c-95 0 -132 -3 -135 -12z M8090 7680 l0 -2330 135 0
135 0 0 2330 0 2330 -135 0 -135 0 0 -2330z M7470 9670 l-125 -5 0 -1990 0
-1990 133 -2 c130 -2 132 -1 132 20 5 245 -2 3962 -7 3966 -5 3 -64 4 -133 1z
M5850 7677 l0 -1994 133 1 132 1 3 1993 2 1992 -135 0 -135 0 0 -1993z M11850
8974 c-305 -28 -549 -142 -679 -318 -87 -117 -123 -227 -123 -376 -1 -172 40
-293 134 -396 126 -137 295 -215 689 -314 365 -92 459 -121 553 -174 89 -50
138 -96 171 -162 28 -55 30 -67 30 -169 0 -106 -1 -112 -34 -173 -61 -112
-172 -191 -330 -234 -64 -18 -106 -21 -266 -22 -121 -1 -217 4 -265 13 -230
42 -414 128 -586 276 l-42 36 -56 -105 c-31 -58 -56 -111 -56 -119 0 -16 61
-75 120 -114 251 -168 591 -255 944 -240 337 14 581 112 732 295 100 121 143
245 144 408 0 167 -58 310 -169 417 -132 127 -319 207 -681 292 -485 113 -659
200 -719 360 -30 80 -26 215 8 287 94 196 349 302 683 284 241 -13 413 -66
596 -182 29 -19 56 -34 61 -34 5 0 28 45 52 101 23 55 46 102 51 105 28 17
-14 51 -148 118 -172 86 -388 134 -624 140 -80 2 -165 2 -190 0z M14685 8974
c-262 -27 -511 -118 -696 -256 -325 -240 -495 -581 -505 -1008 -3 -166 6 -248
42 -387 47 -183 154 -381 284 -525 112 -126 283 -244 448 -310 207 -83 386
-114 622 -105 301 12 524 82 716 225 82 62 184 156 184 170 0 5 -17 24 -37 42
-21 18 -64 58 -96 89 l-57 55 -68 -65 c-150 -147 -315 -223 -551 -254 -342
-46 -666 60 -901 294 -441 439 -381 1225 120 1583 191 136 406 202 660 201
270 -1 500 -88 673 -254 l72 -69 92 92 c51 51 93 97 93 103 0 6 -21 31 -47 57
-216 208 -500 314 -863 323 -80 1 -163 1 -185 -1z M17465 8969 c-218 -24 -430
-100 -610 -218 -79 -52 -224 -187 -284 -264 -175 -229 -263 -495 -264 -802 -1
-378 126 -693 378 -933 277 -265 606 -384 1024 -369 363 12 643 128 897 370
194 185 324 437 369 717 19 120 12 378 -14 491 -62 271 -175 476 -363 655
-288 276 -694 402 -1133 353z m375 -260 c102 -17 168 -38 266 -84 255 -119
430 -312 527 -582 55 -151 74 -379 48 -548 -50 -309 -245 -582 -533 -744 -108
-60 -264 -102 -438 -116 -152 -12 -396 33 -523 96 -305 153 -514 421 -572 733
-20 105 -22 311 -5 406 62 341 262 601 582 755 191 92 425 123 648 84z M19722
8093 l4 -858 27 -103 c105 -398 323 -620 706 -719 121 -31 346 -42 500 -24
272 32 517 156 654 329 94 121 173 302 208 477 11 56 14 234 14 910 l0 840
-142 3 -143 3 0 -799 c0 -863 -1 -879 -55 -1049 -84 -267 -298 -429 -613 -464
-295 -33 -564 64 -709 256 -58 76 -104 175 -134 290 l-24 90 -3 838 -3 837
-145 0 -145 0 3 -857z M22390 8948 c-1 -4 -1 -210 -1 -230 1 -17 29 -18 451
-18 l450 0 0 -1145 0 -1145 43 -1 c23 0 87 -1 142 -2 l100 -2 0 1145 0 1145
450 5 450 5 0 120 0 120 -1042 3 c-574 1 -1043 1 -1043 0z M4357 8743 c-4 -3
-7 -485 -7 -1070 l0 -1063 140 0 140 0 0 1070 0 1070 -133 0 c-74 0 -137 -3
-140 -7z M8840 7680 l0 -1070 135 0 135 0 0 1070 0 1070 -135 0 -135 0 0
-1070z M3614 8245 c-2 -5 -3 -264 -2 -575 l3 -565 130 0 130 0 2 572 2 573
-22 5 c-42 9 -239 1 -243 -10z M9590 7680 l0 -581 133 3 132 3 -2 563 c-1 310
-4 569 -7 577 -4 12 -30 15 -131 15 l-125 0 0 -580z"/>
</g>
</svg>
